<?xml version="1.0" encoding="utf-8"?>
<!-- Generator: Adobe Illustrator 23.0.2, SVG Export Plug-In . SVG Version: 6.00 Build 0)  -->
<svg version="1.1" id="Ebene_1" xmlns="http://www.w3.org/2000/svg" xmlns:xlink="http://www.w3.org/1999/xlink" x="0px" y="0px"
	 viewBox="0 0 56.7 28.3" style="enable-background:new 0 0 56.7 28.3;" xml:space="preserve">
<style type="text/css">
	.st0{font-family:'AmaticSC-Regular';}
	.st1{font-size:11px;}
	.st2{fill:none;stroke:#000000;stroke-width:0.1;stroke-miterlimit:10;}
</style>
<text transform="matrix(1 0 0 1 30.8589 17.5003)" class="st0 st1">elysion</text>
<g>
	<circle class="st2" cx="15.6" cy="14" r="11.6"/>
	<circle class="st2" cx="15.6" cy="14" r="11"/>
	<g>
		<path d="M9,7.7C9,7.7,9,7.7,9,7.7c0.1,0,0.1,0,0.1,0c0,0,0-0.1,0-0.1L8.9,7.4c0,0-0.1,0-0.1,0c0,0,0,0.1,0,0.1L9,7.7z"/>
		<path d="M9.6,8.3C9.7,8.3,9.7,8.4,9.6,8.3c0.1,0,0.1,0,0.1,0c0,0,0-0.1,0-0.1L9.6,8c0,0-0.1,0-0.1,0c0,0,0,0.1,0,0.1L9.6,8.3z"/>
		<path d="M8.9,8.4C8.9,8.4,8.9,8.3,8.9,8.4l0.3-0.2c0,0,0-0.1,0-0.1C9.1,8,9,8,9,8L8.8,8.2C8.8,8.2,8.8,8.3,8.9,8.4
			C8.8,8.3,8.9,8.4,8.9,8.4z"/>
		<path d="M9.5,7.7C9.5,7.7,9.6,7.7,9.5,7.7l0.3-0.2c0,0,0-0.1,0-0.1c0,0-0.1,0-0.1,0L9.4,7.6C9.4,7.6,9.4,7.6,9.5,7.7
			C9.5,7.7,9.5,7.7,9.5,7.7z"/>
		<path d="M20.5,20.5c0,0-0.1,0-0.1,0c0,0,0,0.1,0,0.1l0.2,0.2c0,0,0,0,0.1,0c0,0,0,0,0.1,0c0,0,0-0.1,0-0.1L20.5,20.5z"/>
		<path d="M21.1,21.1c0,0-0.1,0-0.1,0c0,0,0,0.1,0,0.1l0.2,0.2c0,0,0,0,0.1,0s0,0,0.1,0c0,0,0-0.1,0-0.1L21.1,21.1z"/>
		<path d="M20.5,21.1l-0.2,0.2c0,0,0,0.1,0,0.1c0,0,0,0,0.1,0s0,0,0.1,0l0.2-0.2c0,0,0-0.1,0-0.1C20.6,21.1,20.6,21.1,20.5,21.1z"/>
		<path d="M21.2,20.5L21,20.7c0,0,0,0.1,0,0.1c0,0,0,0,0.1,0s0,0,0.1,0l0.2-0.2c0,0,0-0.1,0-0.1C21.3,20.5,21.2,20.5,21.2,20.5z"/>
		<path d="M16.5,18.6c0,0-0.1,0-0.1,0s0,0.1,0,0.1l0.2,0.2c0,0,0,0,0.1,0s0,0,0.1,0c0,0,0-0.1,0-0.1L16.5,18.6z"/>
		<path d="M17.2,19.2c0,0-0.1,0-0.1,0c0,0,0,0.1,0,0.1l0.2,0.2c0,0,0,0,0.1,0c0,0,0,0,0.1,0c0,0,0-0.1,0-0.1L17.2,19.2z"/>
		<path d="M16.6,19.2l-0.2,0.2c0,0,0,0.1,0,0.1c0,0,0,0,0.1,0c0,0,0,0,0.1,0l0.2-0.2c0,0,0-0.1,0-0.1C16.7,19.2,16.6,19.2,16.6,19.2
			z"/>
		<path d="M17.2,18.6l-0.2,0.2c0,0,0,0.1,0,0.1c0,0,0,0,0.1,0c0,0,0,0,0.1,0l0.2-0.2c0,0,0-0.1,0-0.1C17.3,18.6,17.3,18.6,17.2,18.6
			z"/>
		<path d="M9,13.1v1.5c0,0,0,0.1,0.1,0.1c0,0,0.1,0,0.1-0.1v-1.5C9.2,13.1,9.2,13,9,13.1C9.1,13,9,13.1,9,13.1z"/>
		<path d="M9.1,15.2C9.1,15.2,9,15.2,9.1,15.2L9,15.8c0,0,0,0.1,0.1,0.1c0,0,0.1,0,0.1-0.1L9.1,15.2C9.2,15.2,9.2,15.2,9.1,15.2z"/>
		<path d="M22.7,16.1C22.7,16.1,22.6,16.1,22.7,16.1l-0.1,1.6c0,0,0,0.1,0.1,0.1c0,0,0.1,0,0.1-0.1L22.7,16.1
			C22.8,16.1,22.7,16.1,22.7,16.1z"/>
		<path d="M22.7,18.2C22.7,18.2,22.6,18.3,22.7,18.2l-0.1,0.6c0,0,0,0.1,0.1,0.1c0,0,0.1,0,0.1-0.1L22.7,18.2
			C22.8,18.3,22.7,18.2,22.7,18.2z"/>
		<path d="M12.7,16.5c-0.2,0-0.4,0.2-0.4,0.4c0,0.2,0.2,0.4,0.4,0.4c0.2,0,0.4-0.2,0.4-0.4C13.1,16.7,12.9,16.5,12.7,16.5z
			 M12.7,17.2c-0.1,0-0.3-0.1-0.3-0.3c0-0.1,0.1-0.3,0.3-0.3c0.1,0,0.3,0.1,0.3,0.3S12.8,17.2,12.7,17.2z"/>
		<path d="M21.8,10c-0.2,0-0.4,0.2-0.4,0.4c0,0.2,0.2,0.4,0.4,0.4s0.4-0.2,0.4-0.4C22.2,10.2,22.1,10,21.8,10z M21.8,10.7
			c-0.1,0-0.3-0.1-0.3-0.3c0-0.1,0.1-0.3,0.3-0.3c0.1,0,0.3,0.1,0.3,0.3C22.1,10.6,22,10.7,21.8,10.7z"/>
		<path d="M11.3,18.9C11.3,18.9,11.2,18.9,11.3,18.9l-2-0.1c0,0-0.1,0-0.1,0.1c0,0,0,0.1,0.1,0.1L11.3,18.9
			C11.2,19,11.3,19,11.3,18.9z"/>
		<path d="M8.7,18.9H8.1c0,0-0.1,0-0.1,0.1C8,19,8,19,8.1,19h0.6C8.7,19,8.8,19,8.7,18.9C8.8,18.9,8.7,18.9,8.7,18.9z"/>
		<path d="M8.1,18.4h1.3c0,0,0.1,0,0.1-0.1c0,0,0-0.1-0.1-0.1H8.1C8,18.2,8,18.2,8.1,18.4C8,18.3,8,18.4,8.1,18.4z"/>
		<path d="M9.9,18.4h0.4c0,0,0.1,0,0.1-0.1c0,0,0-0.1-0.1-0.1H9.9C9.9,18.2,9.9,18.2,9.9,18.4C9.9,18.3,9.9,18.4,9.9,18.4z"/>
		<path d="M20,7.6h1.9c0,0,0.1,0,0.1-0.1c0,0,0-0.1-0.1-0.1H20C19.9,7.4,19.9,7.5,20,7.6C19.9,7.6,19.9,7.6,20,7.6z"/>
		<path d="M22.5,7.6h0.6c0,0,0.1,0,0.1-0.1c0,0,0-0.1-0.1-0.1h-0.6C22.5,7.4,22.4,7.5,22.5,7.6C22.4,7.6,22.5,7.6,22.5,7.6z"/>
		<path d="M23.1,8.1h-1.3c0,0-0.1,0-0.1,0.1c0,0,0,0.1,0.1,0.1h1.3C23.2,8.3,23.2,8.2,23.1,8.1C23.2,8.1,23.2,8.1,23.1,8.1z"/>
		<path d="M20.8,8.1C20.8,8.1,20.7,8.1,20.8,8.1c-0.1,0.1-0.1,0.2,0,0.2h0.4c0,0,0.1,0,0.1-0.1c0,0,0-0.1-0.1-0.1H20.8z"/>
		<path d="M15.2,8.5C15.2,8.5,15.2,8.4,15.2,8.5l0.1-1.5c0,0,0-0.1-0.1-0.1c0,0-0.1,0-0.1,0.1L15.2,8.5C15.1,8.4,15.1,8.5,15.2,8.5z
			"/>
		<path d="M13.3,8.9C13.4,8.9,13.4,8.9,13.3,8.9c0.1,0,0.1,0,0.1,0c0,0,0.1-0.1,0-0.1l-0.7-1.2c0,0-0.1-0.1-0.1,0c0,0-0.1,0.1,0,0.1
			L13.3,8.9z"/>
		<path d="M10.9,9.5l1.2,0.7c0,0,0,0,0,0c0,0,0.1,0,0.1,0c0,0,0-0.1,0-0.1L11,9.3c0,0-0.1,0-0.1,0C10.9,9.4,10.9,9.4,10.9,9.5z"/>
		<path d="M10.3,11.9L10.3,11.9l1.4,0c0,0,0.1,0,0.1-0.1c0,0,0-0.1-0.1-0.1l-1.4,0C10.3,11.7,10.2,11.7,10.3,11.9
			C10.2,11.8,10.3,11.9,10.3,11.9z"/>
		<path d="M12.2,13.4l-1.2,0.7c0,0-0.1,0.1,0,0.1c0,0,0,0,0.1,0c0,0,0,0,0,0l1.2-0.7c0,0,0.1-0.1,0-0.1
			C12.3,13.4,12.2,13.4,12.2,13.4z"/>
		<path d="M14.3,8.5C14.3,8.5,14.3,8.5,14.3,8.5c0.1,0.1,0.1,0.1,0.1,0.1c0,0,0.1-0.1,0.1-0.1l-0.3-0.8c0,0-0.1-0.1-0.1-0.1
			c0,0-0.1,0.1-0.1,0.1L14.3,8.5z"/>
		<path d="M12.7,9.4C12.7,9.4,12.8,9.4,12.7,9.4c0.1,0,0.1,0,0.1,0c0,0,0-0.1,0-0.1l-0.6-0.6c0,0-0.1,0-0.1,0c0,0,0,0.1,0,0.1
			L12.7,9.4z"/>
		<path d="M12,10.8c0,0,0-0.1-0.1-0.1l-0.8-0.2c0,0-0.1,0-0.1,0.1c0,0,0,0.1,0.1,0.1l0.8,0.2C11.9,10.9,11.9,10.9,12,10.8
			C11.9,10.9,12,10.9,12,10.8z"/>
		<path d="M11,12.8c0,0-0.1,0.1-0.1,0.1c0,0,0,0.1,0.1,0.1c0,0,0,0,0,0l0.8-0.3c0,0,0.1-0.1,0.1-0.1c0,0-0.1-0.1-0.1-0.1L11,12.8z"
			/>
		<path d="M12.6,14.1L12,14.7c0,0,0,0.1,0,0.1c0,0,0,0,0.1,0s0,0,0.1,0l0.6-0.6c0,0,0-0.1,0-0.1C12.7,14,12.7,14,12.6,14.1z"/>
		<path d="M16.8,8.9C16.9,8.9,16.9,8.9,16.8,8.9c0.1,0,0.1,0,0.1,0l0.7-1.2c0,0,0-0.1,0-0.1c0,0-0.1,0-0.1,0l-0.7,1.2
			C16.8,8.8,16.8,8.9,16.8,8.9z"/>
		<path d="M15.9,8.5C15.9,8.5,16,8.5,15.9,8.5c0.1,0,0.1,0,0.1-0.1l0.3-0.8c0,0,0-0.1-0.1-0.1c0,0-0.1,0-0.1,0.1l-0.3,0.8
			C15.9,8.5,15.9,8.5,15.9,8.5z"/>
		<path d="M17.5,9.4C17.5,9.4,17.5,9.4,17.5,9.4c0.1,0,0.1,0,0.1,0l0.6-0.6c0,0,0-0.1,0-0.1c0,0-0.1,0-0.1,0l-0.6,0.6
			C17.4,9.3,17.4,9.3,17.5,9.4z"/>
		<path d="M21.2,13.2c-0.1-0.2-0.1-0.3-0.2-0.5l-0.1-0.7c-0.1-0.4-0.3-0.8-0.6-1.2c-1-1.2-2.4-1.3-2.4-1.3h-1.2
			c-0.4-0.3-0.8-0.4-1.3-0.5c-0.7,0-1.4,0.2-1.9,0.7c-0.5,0.5-0.8,1.2-0.8,1.9c0,0.4,0.1,0.8,0.3,1.1c0,0,0,0,0,0
			c0.1,0.1,0.1,0.2,0.2,0.3l0,0c0.4,0.7,0.7,1.5,0.8,2.3c0,0.2,0.1,0.5,0.1,0.7c0,0,0,0,0,0c0.1,0.2,0.2,0.3,0.3,0.3
			c0,0.2,0.2,0.4,0.5,0.5v0.2c0,0,0,0.1,0.1,0.1c0,0,0.1,0,0.1-0.1V17c0,0,0.1,0,0.2,0c0.1,0,0.2,0,0.3,0v4.3c0,0.3-0.2,0.5-0.5,0.5
			h-4.7c0,0-0.1,0-0.1,0.1c0,0,0,0.1,0.1,0.1H15c0.4,0,0.7-0.3,0.7-0.7V17c0,0,0,0,0,0c0.2-0.1,0.3-0.3,0.3-0.4
			c0.2,0,0.3-0.2,0.3-0.4c0-0.1,0-0.3,0.1-0.4c0.2-1,0.5-1.9,0.9-2.7c0,0,0-0.1,0.1-0.1c0,0,0,0,0,0c0.2-0.4,0.3-0.9,0.3-1.4
			c0-0.7-0.4-1.3-0.9-1.8h1c0,0,1.3,0.1,2.3,1.2c0.3,0.4,0.5,0.8,0.6,1.1l0.1,0.7c0,0.2,0.1,0.4,0.2,0.5l0.8,1.6c0,0,0,0.1,0,0.2
			c0,0-0.1,0.1-0.1,0.1H21c0,0-0.1,0-0.1,0.1v1.4c0,0-0.1,0.7-0.9,0.8h-1.3c0,0-0.1,0-0.1,0.1c0,0,0,0.1,0.1,0.1H19v1.7
			c0,0,0,0.1,0.1,0.1c0,0,0.1,0,0.1-0.1v-1.8H20c0.9,0,1.1-0.9,1.1-1v-1.3h0.5c0.1,0,0.2-0.1,0.3-0.2c0.1-0.1,0.1-0.2,0-0.3
			L21.2,13.2z M15.2,12.9c0.2,0.1,0.4,0.3,0.6,0.3c-0.2,0.6-0.3,1.6-0.4,1.9h-0.5c0-0.3-0.2-1.3-0.4-1.9C14.8,13.1,15,13,15.2,12.9z
			 M14.9,12.4c0,0,0-0.3,0.2-0.3h0.1c0.2,0,0.2,0.3,0.2,0.3c0,0.1-0.1,0.2-0.2,0.3C15.1,12.6,15,12.5,14.9,12.4z M14.8,15.3
			C14.8,15.3,14.8,15.3,14.8,15.3C14.9,15.3,14.9,15.3,14.8,15.3h0.6c0,0,0,0,0,0h0c0,0,0,0,0,0h0.7c0,0.1,0,0.3-0.1,0.4
			c0,0,0,0,0,0h-2c0-0.1,0-0.2,0-0.3c0,0,0-0.1,0-0.1L14.8,15.3L14.8,15.3z M15.2,16.9c-0.3,0-0.6-0.2-0.6-0.4h1.2
			C15.7,16.7,15.5,16.9,15.2,16.9z M15.8,16.3h-1.3c-0.1,0-0.3-0.1-0.3-0.2c0-0.1,0-0.2,0-0.2h2c0,0.1,0,0.1,0,0.2
			C16.1,16.2,16,16.3,15.8,16.3z M17.5,11.5c0,0.5-0.1,0.9-0.3,1.3c0,0,0,0,0,0c0,0,0,0.1-0.1,0.1c-0.4,0.6-0.7,1.4-0.9,2.2h-0.7
			c0-0.3,0.2-1.2,0.4-1.9c0.1,0,0.2,0,0.3,0c0.2-0.1,0.3-0.3,0.3-0.4c0-0.2-0.1-0.3-0.2-0.3c-0.1,0-0.2,0-0.3,0.2
			c0,0.1-0.1,0.2-0.1,0.3c-0.2,0-0.4-0.2-0.5-0.3c0.1-0.1,0.2-0.2,0.2-0.4c0-0.2-0.1-0.4-0.3-0.5h0h-0.1h0c-0.3,0-0.3,0.3-0.3,0.5
			c0,0.2,0.1,0.3,0.2,0.4c-0.1,0.1-0.3,0.2-0.5,0.3c0-0.1-0.1-0.2-0.1-0.3c-0.1-0.2-0.2-0.2-0.3-0.2c-0.1,0-0.2,0.1-0.2,0.3
			c0,0.2,0.1,0.4,0.3,0.4c0.1,0,0.2,0,0.3,0c0.2,0.6,0.3,1.5,0.4,1.9H14c-0.2-0.7-0.4-1.4-0.8-2l0,0c-0.1-0.1-0.1-0.2-0.2-0.3
			c0,0,0,0,0,0c-0.2-0.3-0.2-0.7-0.2-1c0-0.6,0.3-1.3,0.8-1.7c0.5-0.5,1.1-0.7,1.8-0.6c0.4,0,0.9,0.2,1.2,0.4c0,0,0,0,0,0
			C17.1,10.2,17.5,10.8,17.5,11.5z M16,13.1c0-0.1,0.1-0.2,0.1-0.3c0-0.1,0.1-0.1,0.1-0.1c0.1,0,0.1,0.1,0.1,0.1
			c0,0.1,0,0.2-0.1,0.2C16.1,13.1,16.1,13.1,16,13.1z M14.3,13.1c-0.1,0-0.1,0-0.2,0C14,13,14,12.9,14,12.8c0,0,0-0.1,0.1-0.1l0,0
			c0,0,0.1,0,0.1,0.1C14.2,12.9,14.3,12.9,14.3,13.1z"/>
		<path d="M14.9,17.8C15,17.8,15,17.8,14.9,17.8l0.1-0.2c0,0,0-0.1-0.1-0.1c0,0-0.1,0-0.1,0.1L14.9,17.8
			C14.8,17.8,14.9,17.8,14.9,17.8z"/>
		<path d="M14.8,19.1C14.8,19.1,14.9,19.2,14.8,19.1c0.1,0.1,0.2,0.1,0.2,0v-0.4c0,0,0,0,0,0c0,0,0,0,0,0v-0.4c0,0,0-0.1-0.1-0.1
			c0,0-0.1,0-0.1,0.1v0.4c0,0,0,0,0,0c0,0,0,0,0,0V19.1z"/>
		<path d="M10.4,21.3C10.4,21.3,10.5,21.3,10.4,21.3c0.1-0.1,0.1-0.2,0-0.2H9.9c0,0,0,0,0,0c0,0,0,0,0,0H9.6c0,0-0.1,0-0.1,0.1
			c0,0,0,0.1,0.1,0.1h0.2c0,0,0,0,0,0c0,0,0,0,0,0H10.4z"/>
		<path d="M14.8,19.6C14.8,19.6,14.9,19.7,14.8,19.6c0.1,0.1,0.2,0.1,0.2,0v-0.1c0,0,0-0.1-0.1-0.1C14.9,19.4,14.8,19.5,14.8,19.6
			L14.8,19.6z"/>
		<path d="M11.8,21.1C11.8,21.1,11.8,21.1,11.8,21.1C11.7,21.1,11.7,21.1,11.8,21.1h-0.5c0,0-0.1,0-0.1,0.1c0,0,0,0.1,0.1,0.1h0.4
			c0,0,0,0,0,0c0,0,0,0,0,0h0.4c0,0,0.1,0,0.1-0.1c0,0,0-0.1-0.1-0.1H11.8z"/>
		<path d="M14.8,20.8C14.8,20.9,14.8,20.9,14.8,20.8c0,0.1,0,0.2,0,0.2c0,0,0,0,0,0c0,0,0.1,0,0.1-0.1s0-0.1,0-0.1v-0.3c0,0,0,0,0,0
			c0,0,0,0,0,0V20c0,0,0-0.1-0.1-0.1c0,0-0.1,0-0.1,0.1v0.4c0,0,0,0,0,0c0,0,0,0,0,0L14.8,20.8L14.8,20.8z"/>
		<path d="M14.6,21.3C14.6,21.3,14.7,21.3,14.6,21.3c0.1-0.1,0-0.2,0-0.2c0,0,0,0,0,0c0,0-0.1,0-0.1,0.1
			C14.5,21.3,14.5,21.3,14.6,21.3C14.5,21.3,14.6,21.3,14.6,21.3z"/>
		<path d="M10.8,21.1C10.8,21.1,10.7,21.2,10.8,21.1c-0.1,0.1-0.1,0.2,0,0.2h0.1c0,0,0.1,0,0.1-0.1C11,21.2,10.9,21.1,10.8,21.1
			L10.8,21.1z"/>
		<path d="M12.7,21.1C12.6,21.1,12.6,21.2,12.7,21.1c-0.1,0.1-0.1,0.2,0,0.2h0.1c0,0,0.1,0,0.1-0.1C12.8,21.2,12.8,21.1,12.7,21.1
			L12.7,21.1z"/>
		<path d="M13.2,21.3h0.4c0,0,0,0,0,0c0,0,0,0,0,0h0.4c0,0,0.1,0,0.1-0.1c0,0,0-0.1-0.1-0.1h-0.4c0,0,0,0,0,0c0,0,0,0,0,0h-0.4
			C13.1,21.1,13.1,21.1,13.2,21.3C13.1,21.3,13.1,21.3,13.2,21.3z"/>
		<path d="M18.2,21.3C18.1,21.3,18.1,21.3,18.2,21.3l-0.1,0.3c0,0,0,0.1,0.1,0.1c0,0,0.1,0,0.1-0.1L18.2,21.3
			C18.3,21.3,18.2,21.3,18.2,21.3z"/>
		<path d="M18.2,19.2C18.1,19.2,18.1,19.2,18.2,19.2l-0.1,0.2c0,0,0,0.1,0.1,0.1c0,0,0.1,0,0.1-0.1L18.2,19.2
			C18.3,19.2,18.2,19.2,18.2,19.2z"/>
		<path d="M18.2,18.2C18.1,18.2,18.1,18.2,18.2,18.2l-0.1,0.3c0,0,0,0,0,0s0,0,0,0V19c0,0,0,0.1,0.1,0.1c0,0,0.1,0,0.1-0.1v-0.5
			c0,0,0,0,0,0c0,0,0,0,0,0L18.2,18.2C18.3,18.2,18.2,18.2,18.2,18.2z"/>
		<path d="M18.2,20.8C18.1,20.8,18.1,20.8,18.2,20.8l-0.1,0.2c0,0,0,0.1,0.1,0.1c0,0,0.1,0,0.1-0.1L18.2,20.8
			C18.3,20.8,18.2,20.8,18.2,20.8z"/>
		<path d="M18.2,19.7C18.1,19.7,18.1,19.8,18.2,19.7l-0.1,0.3c0,0,0,0,0,0s0,0,0,0v0.5c0,0,0,0.1,0.1,0.1c0,0,0.1,0,0.1-0.1v-0.5
			c0,0,0,0,0,0c0,0,0,0,0,0L18.2,19.7C18.3,19.8,18.2,19.7,18.2,19.7z"/>
		<path d="M20.3,13C20.3,13,20.3,13,20.3,13C20.3,13,20.4,13,20.3,13c0.2-1.7-1.2-2.4-1.2-2.4c0,0-0.1,0-0.1,0c0,0,0,0.1,0,0.1
			C19,10.8,20.3,11.4,20.3,13C20.2,13,20.2,13,20.3,13z"/>
	</g>
</g>
</svg>
